<?xml version="1.0" encoding="utf-8"?>
<!-- Generator: Adobe Illustrator 21.0.0, SVG Export Plug-In . SVG Version: 6.00 Build 0)  -->
<svg version="1.1" id="Layer_1" xmlns="http://www.w3.org/2000/svg" xmlns:xlink="http://www.w3.org/1999/xlink" x="0px" y="0px"
	 viewBox="0 0 1000 1000" style="enable-background:new 0 0 1000 1000;" xml:space="preserve">
<style type="text/css">
	.st0{fill:#A62331;}
	.st1{fill:#7F7F7F;}
	.st2{fill:#FFFFFF;}
</style>
<g>
	<path class="st0" d="M923.8,629.9H938v-3.7h-10.2v-3.9h8.8v-3.7h-8.8v-3.8h10v-3.7h-14.1V629.9z M891,629.9h13.5v-3.7h-9.3v-15H891
		V629.9z M867.3,624.3c0,0.7-0.3,1.2-0.8,1.5c-0.5,0.3-1.2,0.5-2.1,0.5h-4.9v-4.1h4.8c1.1,0,1.8,0.2,2.3,0.5
		C867,623.1,867.3,623.6,867.3,624.3L867.3,624.3z M866.2,616.8c0,0.7-0.3,1.2-0.8,1.5c-0.5,0.3-1.3,0.5-2.2,0.5h-3.8v-4h4.1
		c0.9,0,1.5,0.2,2,0.5C866,615.6,866.2,616.1,866.2,616.8L866.2,616.8z M855.4,629.9h8.9c1,0,2-0.1,2.9-0.3s1.6-0.5,2.2-1
		c0.6-0.4,1.1-1,1.4-1.6c0.3-0.6,0.5-1.4,0.5-2.2v-0.1c0-1.3-0.3-2.2-0.9-2.9c-0.6-0.7-1.5-1.3-2.6-1.7c0.3-0.2,0.7-0.4,0.9-0.6
		c0.3-0.3,0.6-0.5,0.8-0.9c0.2-0.3,0.4-0.7,0.5-1.1c0.1-0.4,0.2-0.9,0.2-1.4V616c0-1.3-0.4-2.3-1.3-3.2c-1.1-1.1-2.7-1.7-4.9-1.7
		h-8.7V629.9z M823.9,622.1l2.5-6.1l2.5,6.1H823.9z M816.5,629.9h4.2l1.7-4.2h7.9l1.7,4.2h4.3l-8-18.9h-3.8L816.5,629.9z
		 M788.9,629.9h4.1V615h5.7v-3.8h-15.5v3.8h5.7V629.9z M754.6,620.6v-5.7h3.2c1,0,1.9,0.2,2.5,0.7c0.6,0.5,0.9,1.2,0.9,2.1v0.1
		c0,0.8-0.3,1.5-0.9,2c-0.6,0.5-1.4,0.8-2.4,0.8H754.6z M750.5,629.9h4.1v-5.6h3.1c1.1,0,2-0.1,3-0.4c0.9-0.3,1.7-0.7,2.4-1.2
		c0.7-0.6,1.2-1.2,1.6-2.1c0.4-0.8,0.6-1.8,0.6-2.9v-0.1c0-1-0.2-1.8-0.5-2.6c-0.3-0.8-0.8-1.5-1.4-2c-0.6-0.6-1.4-1-2.2-1.3
		c-0.9-0.3-1.9-0.5-3-0.5h-7.7V629.9z M711,629.9h4.1v-12.2l5.2,7.9h0.1l5.3-8v12.2h4.1v-18.7h-4.4l-4.9,7.9l-4.9-7.9H711V629.9z
		 M678.9,626c-0.7-0.3-1.3-0.7-1.8-1.3c-0.5-0.5-0.9-1.2-1.2-1.9s-0.4-1.5-0.4-2.3v-0.1c0-0.8,0.1-1.6,0.4-2.3
		c0.3-0.7,0.7-1.3,1.2-1.9c0.5-0.5,1.1-1,1.8-1.3c0.7-0.3,1.4-0.5,2.3-0.5c0.8,0,1.6,0.2,2.3,0.5c0.7,0.3,1.3,0.7,1.8,1.3
		c0.5,0.5,0.9,1.2,1.2,1.9s0.4,1.5,0.4,2.3v0.1c0,0.8-0.1,1.6-0.4,2.3c-0.3,0.7-0.7,1.3-1.2,1.9c-0.5,0.5-1.1,1-1.8,1.3
		c-0.7,0.3-1.5,0.5-2.3,0.5C680.4,626.5,679.6,626.3,678.9,626 M685.2,629.5c1.2-0.5,2.3-1.2,3.2-2.1c0.9-0.9,1.6-1.9,2.1-3.1
		c0.5-1.2,0.8-2.4,0.8-3.8v-0.1c0-1.3-0.2-2.6-0.7-3.8c-0.5-1.2-1.2-2.2-2.1-3.1c-0.9-0.9-1.9-1.5-3.1-2.1c-1.2-0.5-2.5-0.8-4-0.8
		s-2.8,0.3-4,0.8c-1.2,0.5-2.3,1.2-3.2,2.1c-0.9,0.9-1.6,1.9-2.1,3.1c-0.5,1.2-0.8,2.4-0.8,3.8v0.1c0,1.3,0.2,2.6,0.7,3.8
		c0.5,1.2,1.2,2.2,2.1,3.1c0.9,0.9,1.9,1.6,3.1,2.1c1.2,0.5,2.5,0.8,4,0.8C682.6,630.3,683.9,630,685.2,629.5 M647.3,630
		c0.7-0.2,1.4-0.4,2-0.7c0.6-0.3,1.2-0.6,1.7-1.1c0.5-0.4,1-0.9,1.5-1.4l-2.6-2.7c-0.7,0.7-1.5,1.2-2.2,1.6
		c-0.7,0.4-1.6,0.6-2.7,0.6c-0.8,0-1.5-0.2-2.2-0.5c-0.7-0.3-1.2-0.7-1.7-1.3c-0.5-0.5-0.8-1.2-1.1-1.9c-0.3-0.7-0.4-1.5-0.4-2.3
		v-0.1c0-0.8,0.1-1.6,0.4-2.3c0.3-0.7,0.6-1.3,1.1-1.9c0.5-0.5,1.1-1,1.7-1.3c0.7-0.3,1.4-0.5,2.2-0.5c0.9,0,1.8,0.2,2.6,0.6
		c0.8,0.4,1.5,0.9,2.2,1.6l2.6-3c-0.4-0.4-0.9-0.8-1.4-1.2c-0.5-0.4-1-0.7-1.6-0.9c-0.6-0.3-1.2-0.4-2-0.6c-0.7-0.1-1.5-0.2-2.4-0.2
		c-1.4,0-2.8,0.3-4,0.8c-1.2,0.5-2.2,1.2-3.1,2.1c-0.9,0.9-1.5,1.9-2,3.1c-0.5,1.2-0.7,2.4-0.7,3.8v0.1c0,1.3,0.2,2.6,0.7,3.8
		c0.5,1.2,1.1,2.2,2,3.1c0.9,0.9,1.9,1.5,3.1,2c1.2,0.5,2.5,0.8,3.8,0.8C645.8,630.3,646.6,630.2,647.3,630 M577.7,629.9H592v-3.7
		h-10.2v-3.9h8.8v-3.7h-8.8v-3.8h10v-3.7h-14.1V629.9z M553.8,629.8c0.8-0.3,1.6-0.6,2.2-1.1c0.6-0.5,1.1-1.1,1.4-1.8
		c0.3-0.7,0.5-1.5,0.5-2.5v-0.1c0-0.8-0.1-1.5-0.4-2.1c-0.3-0.6-0.6-1.1-1.2-1.5s-1.1-0.8-1.9-1.1c-0.7-0.3-1.6-0.6-2.5-0.8
		c-0.8-0.2-1.5-0.4-2-0.6c-0.5-0.2-0.9-0.3-1.2-0.5c-0.3-0.2-0.5-0.4-0.6-0.6c-0.1-0.2-0.2-0.5-0.2-0.8v-0.1c0-0.5,0.2-0.9,0.6-1.2
		c0.4-0.3,1-0.5,1.8-0.5s1.6,0.2,2.4,0.5c0.8,0.3,1.6,0.8,2.5,1.4l2.1-3.1c-1-0.8-2-1.4-3.2-1.8s-2.4-0.6-3.8-0.6
		c-1,0-1.8,0.1-2.6,0.4c-0.8,0.3-1.5,0.7-2.1,1.2c-0.6,0.5-1,1.1-1.3,1.8c-0.3,0.7-0.5,1.5-0.5,2.3v0.1c0,0.9,0.2,1.7,0.4,2.3
		c0.3,0.6,0.7,1.1,1.2,1.6c0.5,0.4,1.2,0.8,2,1.1c0.8,0.3,1.6,0.5,2.6,0.8c0.8,0.2,1.4,0.4,1.9,0.6c0.5,0.2,0.9,0.4,1.2,0.5
		c0.3,0.2,0.5,0.4,0.6,0.6c0.1,0.2,0.2,0.4,0.2,0.7v0.1c0,0.6-0.2,1-0.7,1.3c-0.5,0.3-1.1,0.5-2,0.5c-1.1,0-2.1-0.2-3-0.6
		c-0.9-0.4-1.8-1-2.6-1.7l-2.4,2.9c1.1,1,2.4,1.8,3.7,2.3c1.4,0.5,2.8,0.7,4.2,0.7C552.1,630.2,553,630.1,553.8,629.8 M519.4,629.9
		h4.1v-18.7h-4.1V629.9z M490,629.9h4.1V615h5.7v-3.8h-15.5v3.8h5.7V629.9z M454.2,620.3v-5.4h4.1c1,0,1.8,0.2,2.4,0.7
		c0.6,0.4,0.9,1.1,0.9,2v0.1c0,0.8-0.3,1.4-0.8,1.9s-1.3,0.7-2.3,0.7H454.2z M450.1,629.9h4.1v-6h3.2l4,6h4.8l-4.6-6.7
		c1.2-0.4,2.2-1.1,2.9-2.1c0.7-1,1.1-2.2,1.1-3.7v-0.1c0-1.8-0.5-3.2-1.6-4.3c-1.3-1.3-3.1-1.9-5.5-1.9h-8.6V629.9z M415.9,629.9
		h14.2v-3.7H420v-3.9h8.8v-3.7H420v-3.8h10v-3.7h-14.1V629.9z M386,620.6v-5.7h3.2c1,0,1.9,0.2,2.5,0.7c0.6,0.5,0.9,1.2,0.9,2.1v0.1
		c0,0.8-0.3,1.5-0.9,2c-0.6,0.5-1.4,0.8-2.4,0.8H386z M381.8,629.9h4.1v-5.6h3.1c1.1,0,2-0.1,3-0.4c0.9-0.3,1.7-0.7,2.4-1.2
		c0.7-0.6,1.2-1.2,1.6-2.1c0.4-0.8,0.6-1.8,0.6-2.9v-0.1c0-1-0.2-1.8-0.5-2.6c-0.3-0.8-0.8-1.5-1.4-2c-0.6-0.6-1.4-1-2.2-1.3
		c-0.9-0.3-1.9-0.5-3-0.5h-7.7V629.9z M357.6,611.2l-4,6.1l-3.9-6.1h-4.8l6.3,9.2l-6.5,9.5h4.7l4.2-6.4l4.2,6.4h4.8l-6.5-9.6
		l6.3-9.2H357.6z M311.9,629.9h14.2v-3.7H316v-3.9h8.8v-3.7H316v-3.8h10v-3.7h-14.1V629.9z"/>
	<path class="st1" d="M926.7,571.1c-4.1,7.8-9.7,13.4-16.8,16.7c-7.1,3.3-14,4.9-20.7,4.9c-12.7,0-23.2-5-31.7-15.1
		c-8.5-10.1-12.7-24.6-12.7-43.5c0-20,3.9-35.3,11.7-46c7.8-10.7,18.3-16.1,31.5-16.1c10.8,0,20.5,3.3,29.1,10
		c8.6,6.6,14.3,18.4,17.1,35.4h4l-1.1-47.8h-4.1c-0.6,5.6-2.2,11.1-4.8,16.4c-3.8-4.7-9.5-9-17.2-12.9c-7.7-3.9-16.2-5.8-25.6-5.8
		c-11.4,0-21.9,2.7-31.4,8c-9.5,5.3-17,13.5-22.3,24.5c-5.3,11-8,22.7-8,35.2c0,19,5.8,34.2,17.3,45.8
		c11.6,11.5,26.5,17.3,44.7,17.3c17.2,0,31.4-6.3,42.5-18.8c2.9,3.8,4.9,8.3,6,13.3h4v-44.2h-4C933.3,555.6,930.8,563.2,926.7,571.1
		 M786.5,578.3c-3.9,5.3-8,8.8-12.2,10.5c-4.3,1.7-9.7,2.6-16.4,2.6h-9.4c-8.4,0-13.6-1.3-15.5-4c-1.9-2.6-2.9-11.4-2.9-26.4v-29.9
		H744c5.4,0,9.2,0.4,11.5,1.1c2.3,0.7,4,2.3,5.2,4.7c1.2,2.4,1.8,7.1,1.8,14.1h4.4v-43.2h-4.4c0,6.2-0.4,10.4-1.2,12.5
		c-0.8,2.1-2.4,3.7-4.8,4.8c-2.5,1.1-6.7,1.6-12.9,1.6h-13.4v-52.9h17.5c8.8,0,15.2,0.5,19.2,1.4c4,1,7.4,3.3,10.3,7
		c2.9,3.7,5.3,9.9,7.3,18.7h4.4l-3-31.4h-90.1v4.3c6.1,0,10.1,0.6,12,1.8s3.1,3.3,3.6,6.4c0.5,3,0.8,9.4,0.8,19v61.9
		c0,10.5-0.2,17.1-0.7,19.7c-0.5,2.6-1.7,4.7-3.5,6.4c-1.8,1.7-5.9,2.5-12.1,2.5H693v4.3h104.4l2.7-39.2h-4.5
		C793.5,565.7,790.4,573,786.5,578.3 M620.4,546.3h3c5,0,8.4,0.4,10.2,1.2c1.9,0.8,3.2,2.3,4.1,4.6c0.9,2.3,1.4,6.8,1.4,13.5
		c0,5.8-1,10.5-2.9,14.3c-1.9,3.8-5.5,7-10.8,9.6c-5.3,2.6-11.1,4-17.6,4c-12.6,0-23.1-4.7-31.6-14c-8.5-9.3-12.7-25.2-12.7-47.6
		c0-22.4,4.4-38.1,13.2-46.9c8.8-8.8,19.1-13.2,31-13.2c11.5,0,21.2,3.8,29.3,11.3c8,7.6,12.9,17.8,14.7,30.8h4.5v-42.1h-4.5
		c-0.6,5-1.9,9.7-3.9,14c-11-12.4-25-18.6-41.9-18.6c-19.6,0-35.1,6.8-46.5,20.4C548,501.2,542.3,517,542.3,535
		c0,18.2,6,33.3,17.9,45.2c12,11.9,27,17.8,45,17.8c9,0,18.8-2,29.3-5.9c7.7-2.9,14-4.4,18.8-4.4c1.2,0,2.5,0.1,4,0.4v-13.4
		c0-10.9,0.3-17.7,1-20.5c0.7-2.8,2.1-4.8,4.2-6c2.1-1.2,6.2-1.8,12.2-1.8v-4.5h-54.4V546.3z M503.3,598.5V494.2
		c0-5.4,0.4-9.2,1.3-11.5c0.8-2.3,2.8-4.2,5.9-5.8c3.1-1.6,7.3-2.6,12.6-3.1v-4.3h-45.8v4.3c5,0,9.2,0.7,12.7,2
		c3.5,1.3,5.9,3.1,7,5.3c1.1,2.2,1.7,6.1,1.7,11.7v75.4l-74.7-98.7h-37.2v4.3c6.8,0,11.1,0.5,13.1,1.4c2,0.9,3.4,3,4.3,6.3
		c0.9,3.3,1.4,9.8,1.4,19.4v66.9c0,7.6-0.3,12.5-0.9,14.5c-0.6,2-2.5,4-5.6,5.7c-3.2,1.8-7.7,2.9-13.8,3.3v4.3h47.1v-4.3
		c-6.7,0-11.7-1-15.1-2.9c-3.3-1.9-5.4-4-6.1-6.3c-0.7-2.3-1.1-7.1-1.1-14.3v-87.5l89.2,118.2H503.3z M314.6,473.8
		c6.4,0,10.5,0.6,12.5,1.7c1.9,1.1,3.2,3.1,3.7,6c0.6,2.9,0.8,9.4,0.8,19.4v61.9c0,10.5-0.3,17.3-0.8,20.1c-0.6,2.9-1.9,5-4,6.4
		c-2.1,1.4-5.8,2-11.2,2h-3.7v4.3h57.7v-4.3h-3.7c-5.7,0-9.6-0.7-11.6-2.2c-2-1.5-3.3-3.8-3.7-6.8c-0.5-3.1-0.7-9.6-0.7-19.5V501
		c0-10.5,0.3-17.1,1-19.9c0.7-2.8,1.9-4.7,3.9-5.7c1.9-1,6-1.5,12.2-1.5h2.7v-4.3h-57.7v4.3H314.6z"/>
</g>
<rect x="128.2" y="468.9" class="st0" width="161.3" height="161.3"/>
<rect x="62" y="402.2" class="st1" width="132.4" height="133.5"/>
<rect x="154.1" y="369.8" class="st0" width="74" height="74"/>
<g>
	<path class="st2" d="M154.3,467.2v5h2.6c7.5,0,12.4,0.7,14.6,2c2.2,1.3,3.7,3.7,4.4,7.1c0.7,3.4,1,11.1,1,22.9v72.9
		c0,12.4-0.3,20.3-1,23.7s-2.3,5.9-4.7,7.5c-2.5,1.6-6.9,2.4-13.2,2.4h-4.6v5h69.1v-5h-5c-6.8,0-11.4-0.9-13.8-2.6
		c-2.4-1.8-3.9-4.4-4.4-8.1c-0.6-3.6-0.9-11.3-0.9-23v-37h13.9c7.3,0,12.2,0.7,14.8,2c2.5,1.4,4.4,3.9,5.7,7.6
		c1.3,3.7,1.9,8.7,1.9,15.1h5.5v-52.4h-5.5c0,9.1-1.5,15.2-4.4,18.3c-3,3-8.9,4.6-17.9,4.6h-13.9v-63.1h29.1c9.2,0,15.8,0.7,19.6,2
		c3.9,1.3,7.6,4.6,11.1,9.9c3.6,5.3,5.8,12,6.9,20.1h5.2l-1.2-37.1H154.3z"/>
</g>
</svg>
